<svg t="1680166091972" class="icon" viewBox="0 0 1024 1024" version="1.1" xmlns="http://www.w3.org/2000/svg" p-id="16172" width="32" height="32"><path d="M409.39 531.36c-61.36 0-119.05-23.9-162.45-67.29-43.39-43.39-67.29-101.08-67.29-162.45s23.9-119.05 67.29-162.45C290.33 95.79 348.03 71.9 409.39 71.9s119.06 23.9 162.45 67.29c43.39 43.39 67.29 101.08 67.29 162.45s-23.9 119.05-67.29 162.45c-43.4 43.38-101.09 67.27-162.45 67.27z m0-401.46c-94.69 0-171.73 77.04-171.73 171.73s77.04 171.73 171.73 171.73 171.73-77.04 171.73-171.73S504.08 129.9 409.39 129.9z" p-id="16173"></path><path d="M543.21 952.51H153.16c-25.3 0-49.38-10.91-66.07-29.93-16.6-18.92-24.25-44.06-20.98-68.97 12.97-98.62 53.75-189.17 114.81-254.97 63.19-68.09 144.32-105.6 228.47-105.6 51.94 0 101.88 13.76 148.43 40.91 13.83 8.07 18.51 25.83 10.44 39.66-8.07 13.83-25.83 18.51-39.66 10.44-37.56-21.9-77.67-33.01-119.21-33.01-34.36 0-67.99 7.69-99.95 22.84-31.32 14.85-60.25 36.45-86 64.2-52.95 57.07-88.4 136.29-99.82 223.08-1.11 8.47 1.4 16.7 7.07 23.16 5.76 6.56 13.74 10.18 22.47 10.18h390.05c16.02 0 29 12.98 29 29s-12.98 29.01-29 29.01z" p-id="16174"></path><path d="M613.14 882.02c-8.61 0-17.16-2.52-24.5-7.44-11.89-7.96-19.17-21.26-19.5-35.56l-1.98-88.34c-0.2-8.93 2.28-17.61 7.18-25.09L786.21 402.1c13.29-20.29 40.61-25.99 60.9-12.7l85.76 56.17c9.83 6.44 16.57 16.32 18.96 27.82 2.4 11.5 0.17 23.25-6.27 33.08L733.8 829.82c-5.08 7.75-12.34 13.62-20.99 16.95l-83.87 32.31a43.917 43.917 0 0 1-15.8 2.94z m12.1-128.29l1.44 64.07 61.07-23.53 201.63-307.85-62.32-40.82-201.82 308.13z" p-id="16175"></path></svg>