<svg t="1680834241611" class="icon" viewBox="0 0 1024 1024" version="1.1" xmlns="http://www.w3.org/2000/svg" p-id="2780" width="32" height="32"><path d="M512 1024C230.4 1024 0 793.6 0 512S230.4 0 512 0s512 230.4 512 512-230.4 512-512 512z" fill="#626aef" p-id="2781"></path><path d="M1024 512c0-37.184-4.12-73.44-11.744-108.424L794.704 219.2s-12.344-4.12-28.648 13.112c-16.312 17.232-104.112 240.744-133.848 272.984-36.664 5.104-389.512 0-389.512 0l-10.184 74.584 27.496 102.176 231.8 341.416c6.712 0.28 13.424 0.528 20.192 0.528 281.6 0 512-230.4 512-512z" fill="#4b53f0" p-id="2782"></path><path d="M238.984 505.408c-4.576 17.496-7.064 35.672-7.064 54.344 0 136.824 110.288 247.752 260.536 247.752 159.776 0 279.712-110.92 279.712-247.752 0-18.672-2.496-36.848-7.064-54.344h-526.12z" fill="#AED9CB" p-id="2783"></path><path d="M492.448 814.296c-149.904 0-267.328-111.816-267.328-254.544 0-18.704 2.448-37.568 7.288-56.064a6.788 6.788 0 0 1 6.576-5.08h526.112a6.812 6.812 0 0 1 6.576 5.072c4.84 18.488 7.296 37.352 7.296 56.072 0 142.728-125.856 254.544-286.52 254.544m-248.16-302.088c-3.704 15.736-5.576 31.712-5.576 47.552 0 135.112 111.448 240.944 253.728 240.944 153.04 0 272.92-105.832 272.92-240.944 0-15.848-1.872-31.824-5.584-47.552H244.288z" fill="#474341" p-id="2784"></path><path d="M765.592 512H238.984v44.088H480.72l1.152 0.848c31.168-1.136 60.288 1.504 65.592 11.272 3.984 7.336 0.976 16.136 0.784 24.376s5.928 18.432 14.408 16.432c11.968-2.832 9.424-24.944 21.712-25.888 8.184-0.632 12.008 9.4 12.184 17.152 0.176 7.744 0.784 17.544 8.48 20.256 7.512 2.656 15.208-4.568 17.088-11.92 1.872-7.352 0.408-15.2 2.32-22.544 1.912-7.352 9.696-14.512 17.176-11.768 15.016 5.512 0.92 35.376 16.512 39.2 8.944 2.192 15.288-8.688 15.144-17.392-0.136-8.712-2.856-18.344 2.392-25.512 10.408-14.224 25.776-1.352 42.496-8.424l17.728-6.08h29.704V512z" fill="#F4EDDD" p-id="2785"></path><path d="M524.344 554.384c-1.584-0.296-2.552-1.16-3.048-2.224H237.904v31.168h307.288c-1.376-13.704-3.616-25.72-20.848-28.944M720.84 552.16c-3.384 1.648-7.12 2.888-11.192 3.704-7.48 1.496-15.2 1.528-22.648 3.112-13.768 2.912-17.968 11.672-18.624 24.352h97.208V552.16H720.84z" fill="#3AB394" p-id="2786"></path><path d="M607.088 625.888a14.314 14.314 0 0 1-4.944-0.896c-11.144-4.168-11.44-18.288-11.592-25.888-0.112-5.208-1.856-10.352-4.24-12.504-0.864-0.776-1.744-1.08-2.776-1-3.032 0.248-4.68 4.072-7.032 10.336-2.496 6.648-5.608 14.92-13.896 17-4.168 1.04-8.424 0.08-11.984-2.76-5.168-4.12-8.536-11.92-8.376-19.416 0.056-2.656 0.36-5.368 0.656-8.072 0.648-5.784 1.264-11.232-0.92-15.488-2.912-5.72-22.92-10.84-61.128-9.344h-0.192a4.808 4.808 0 0 1-4.8-4.608 4.812 4.812 0 0 1 4.608-4.984c28.072-1.032 62.888 0.584 70.04 14.576 3.496 6.824 2.648 14.32 1.912 20.92-0.272 2.416-0.552 4.84-0.6 7.208-0.096 4.44 1.96 9.464 4.76 11.712 1.608 1.28 2.864 1.16 3.672 0.952 3.176-0.784 4.928-4.888 7.256-11.064 2.64-7.016 5.912-15.752 15.232-16.52 3.712-0.392 7.152 0.88 9.976 3.44 5.256 4.744 7.264 13.136 7.408 19.424 0.152 7.36 0.704 15.36 5.36 17.096 1.376 0.512 2.776 0.344 4.328-0.472 2.904-1.544 5.544-5.16 6.416-8.8 0.816-3.392 0.912-7.04 1.016-10.912 0.112-4.232 0.232-8.6 1.312-13.008 1.544-6.304 5.992-12.176 11.352-14.96 3.96-2.064 8.304-2.368 12.216-0.848 10.368 4.032 10.76 15.912 11.08 25.464 0.304 9.192 0.784 14.848 4.904 15.92 0.848 0.232 2.232 0.376 3.928-0.96 3.048-2.392 5.288-7.88 5.208-12.768-0.024-2.144-0.216-4.36-0.392-6.56-0.608-7.56-1.312-16.128 3.632-23.288 7.528-10.92 17.56-9.936 26.392-9.064 6.192 0.592 12.072 1.176 18.088-1.52a4.776 4.776 0 0 1 6.336 2.408 4.8 4.8 0 0 1-2.408 6.344c-8.36 3.744-16.136 2.984-22.952 2.312-8.92-0.864-13.424-1.04-17.568 4.976-2.984 4.344-2.496 10.52-1.96 17.064 0.192 2.416 0.384 4.832 0.424 7.184 0.12 7.984-3.448 16.2-8.872 20.464-3.632 2.848-7.976 3.8-12.272 2.704-11.352-2.96-11.76-15.12-12.072-24.888-0.304-9.128-0.816-15.232-4.968-16.848-1.328-0.504-2.752-0.384-4.328 0.432-2.912 1.504-5.576 5.096-6.464 8.72-0.832 3.408-0.928 7.088-1.024 10.992-0.112 4.192-0.224 8.528-1.28 12.904-1.52 6.304-5.928 12.192-11.24 15.024-2.368 1.24-4.816 1.864-7.232 1.864" fill="#474341" p-id="2787"></path><path d="M478.864 557.512h-0.008l-240.952-0.6a4.76 4.76 0 0 1-4.752-4.76 4.764 4.764 0 0 1 4.76-4.752h0.008l240.952 0.6a4.76 4.76 0 0 1 4.752 4.76 4.764 4.764 0 0 1-4.76 4.752M418.712 747.064a4.84 4.84 0 0 1-1.368-0.2 220.364 220.364 0 0 1-47.896-20.816 4.754 4.754 0 0 1-1.696-6.504 4.74 4.74 0 0 1 6.512-1.696 210.372 210.372 0 0 0 45.816 19.904 4.77 4.77 0 0 1 3.192 5.928 4.77 4.77 0 0 1-4.56 3.384M357.312 717.216c-0.968 0-1.928-0.288-2.76-0.888-35.608-25.456-62.24-62.504-75.008-104.32a4.748 4.748 0 0 1 3.16-5.936 4.77 4.77 0 0 1 5.936 3.16c12.144 39.824 37.52 75.104 71.432 99.36a4.746 4.746 0 0 1 1.104 6.632 4.736 4.736 0 0 1-3.864 1.992" fill="#474341" p-id="2788"></path><path d="M661.848 499.944l125.504-255.392c3.776-7.696 0.576-17.08-7.112-20.864-7.696-3.776-17.08-0.576-20.856 7.112l-132.672 269.808" fill="#F4EDDD" p-id="2789"></path><path d="M626.712 505.368a4.754 4.754 0 0 1-4.264-6.856l132.656-269.8c4.944-10.072 17.176-14.224 27.24-9.288 10.072 4.952 14.224 17.168 9.28 27.24L666.12 502.04c-1.16 2.368-4.04 3.304-6.368 2.176a4.756 4.756 0 0 1-2.176-6.368l125.504-255.392c2.632-5.352 0.424-11.864-4.936-14.496a10.844 10.844 0 0 0-14.496 4.944l-132.672 269.808a4.748 4.748 0 0 1-4.264 2.656" fill="#474341" p-id="2790"></path><path d="M659.016 500.616l14.168-32.816-36.832 17.048-6.64 15.768zM733.008 287.2l-20.704 49.184 39.208-23.76 18.336-42.48zM683.4 389.696l-20.704 49.176 39.208-23.752 18.336-42.48z" fill="#9478B5" p-id="2791"></path><path d="M637.248 490.904c-1.56 0-3.096-0.776-4.008-2.192a4.776 4.776 0 0 1 1.44-6.576l44.976-28.808c2.2-1.4 5.152-0.768 6.576 1.44a4.778 4.778 0 0 1-1.44 6.576l-44.976 28.808a4.74 4.74 0 0 1-2.568 0.752M662.696 440.904a4.76 4.76 0 0 1-2.416-8.864l38.912-22.936a4.784 4.784 0 0 1 6.52 1.688 4.772 4.772 0 0 1-1.688 6.52l-38.912 22.936c-0.768 0.44-1.6 0.656-2.416 0.656M687.016 393.16a4.76 4.76 0 0 1-2.416-8.864l38.904-22.936c2.248-1.296 5.176-0.584 6.52 1.688a4.772 4.772 0 0 1-1.688 6.52l-38.904 22.936c-0.76 0.44-1.592 0.656-2.416 0.656M712.304 342.376a4.76 4.76 0 0 1-2.416-8.864l38.912-22.936a4.8 4.8 0 0 1 6.52 1.688 4.772 4.772 0 0 1-1.688 6.52L714.72 341.72c-0.76 0.44-1.592 0.656-2.416 0.656M737.464 293.152a4.76 4.76 0 0 1-2.416-8.864l38.912-22.936a4.786 4.786 0 0 1 6.52 1.688 4.772 4.772 0 0 1-1.688 6.52l-38.912 22.936c-0.76 0.44-1.592 0.656-2.416 0.656M544.8 591.32h-0.024l-310.488-1.2a6.798 6.798 0 0 1 0.032-13.592h0.024l310.48 1.2a6.798 6.798 0 0 1-0.024 13.592M675.464 594.92a6.796 6.796 0 0 1-6.8-6.712 6.808 6.808 0 0 1 6.712-6.88l93.504-1.2h0.08a6.796 6.796 0 0 1 6.8 6.712 6.816 6.816 0 0 1-6.712 6.888l-93.504 1.2h-0.08v-0.008z" fill="#474341" p-id="2792"></path></svg>