<svg t="1678432321883" class="icon" viewBox="0 0 1024 1024" version="1.1" xmlns="http://www.w3.org/2000/svg" p-id="2432" width="32" height="32"><path d="M39.28064 530.26816c0 271.1552 219.83232 490.98752 490.98752 490.98752s490.98752-219.83232 490.98752-490.98752S801.42336 39.28064 530.26816 39.28064 39.28064 259.11296 39.28064 530.26816z" fill="#373740" p-id="2433"></path><path d="M1011.42528 431.104C965.26336 207.17568 767.91808 39.28064 530.26816 39.28064 259.23584 39.28064 39.28064 259.23584 39.28064 530.26816c0 118.784 42.1888 226.83648 111.94368 311.296a576.7168 576.7168 0 0 0 280.82176 71.68c288.72704 0 528.30208-208.19968 579.3792-482.14016z" fill="#444444" p-id="2434"></path><path d="M775.7824 598.99904H284.71296a107.7248 107.7248 0 0 1-108.01152-108.01152A107.7248 107.7248 0 0 1 284.75392 382.976H775.7824a107.7248 107.7248 0 0 1 108.01152 108.01152 107.7248 107.7248 0 0 1-108.01152 108.01152z" fill="#FFD73A" p-id="2435"></path><path d="M343.6544 520.43776a88.02304 88.02304 0 0 0 88.39168-88.39168c0-18.6368-5.85728-35.34848-14.7456-49.07008H284.79488c-4.9152 0-9.8304 0.98304-15.68768 0.98304a88.92416 88.92416 0 0 0-13.76256 48.08704c0 49.152 39.3216 88.39168 88.39168 88.39168z m373.1456 0a88.02304 88.02304 0 0 0 88.43264-88.39168c0-17.65376-4.9152-34.36544-13.76256-48.08704-5.89824 0-10.81344-0.98304-15.72864-0.98304h-132.54656c-9.8304 13.7216-14.7456 30.43328-14.7456 49.07008 0 49.152 39.3216 88.39168 88.39168 88.39168z" fill="#873A18" p-id="2436"></path><path d="M333.86496 166.95296A166.78912 166.78912 0 0 1 166.95296 333.824 166.78912 166.78912 0 0 1 0 166.95296c0-48.128 133.5296 30.43328 166.95296 0C196.4032 139.42784 123.6992 0 166.95296 0A166.78912 166.78912 0 0 1 333.824 166.95296z" fill="#444444" p-id="2437"></path></svg>